:version 1.10
:name ASF
:units
  mass 1
  length 1
  angle deg
:documentation
  ASF file generated by Kaydara
:root
  axis xyz
  order  tx ty tz rx ry rz
  position 0 0 0
  orientation 0 0 0
:bonedata
  begin
    id 1
    name RightUpLegDummy
    direction -1 2.30186e-007 8.31532e-007
    length 4.04083
    axis 0 0 0 xyz
  end
  begin
    id 2
    name RightUpLeg
    direction -0.000919234 -0.999985 0.00544864
    length 17.4221
    axis -3.80308 -0.00076134 -0.0523649 xyz
    dof rx ry rz
  end
  begin
    id 3
    name RightLeg
    direction -0.000919271 -0.999984 -0.00555045
    length 17.1239
    axis 4.00314 0.0181274 -0.183583 xyz
    dof rx ry rz
  end
  begin
    id 4
    name RightFoot
    direction -2.57843e-005 -4.04509e-007 1
    length 6.72091
    axis 8.18909e-005 -0.122003 -0.403008 xyz
    dof rx ry rz
  end
  begin
    id 5
    name RightToes
    direction 0.00116825 -0.014069 0.9999
    length 3.85082
    axis 0.000514414 0.540638 -0.356797 xyz
    dof rx ry rz
  end
  begin
    id 6
    name SpineDummy
    direction 0.0168869 0.966876 -0.254689
    length 6.99894
    axis 0 0 0 xyz
  end
  begin
    id 7
    name Spine
    direction -0.0132008 0.999903 0.00446247
    length 11.1999
    axis -0.00148109 0.00725429 0.756411 xyz
    dof rx ry rz
  end
  begin
    id 8
    name Spine1
    direction 0 0 0
    length 0
    axis -0.000934958 0.0245693 1.46543 xyz
    dof rx ry rz
  end
  begin
    id 9
    name HEadDummy
    direction -0.0255732 0.999672 0.00128215
    length 3.43865
    axis -0.000934958 0.0245693 1.46543 xyz
  end
  begin
    id 10
    name HEad
    direction -0.0472656 0.980052 0.19304
    length 5.12695
    axis -0.000934954 0.0245693 1.46543 xyz
    dof rx ry rz
  end
  begin
    id 11
    name LeftShoulder1Dummy
    direction 0.953098 0.301717 -0.023914
    length 3.68488
    axis -0.000934958 0.0245693 1.46543 xyz
  end
  begin
    id 12
    name LeftShoulder1
    direction 0.962466 0.271167 0.0112566
    length 3.13809
    axis -0.000934958 0.0245693 1.46543 xyz
    dof rx ry rz
  end
  begin
    id 13
    name LeftArm
    direction 0.999943 0.00455037 -0.00961766
    length 11.3419
    axis -23.1648 0.685459 1.22814 xyz
    dof rx ry rz
  end
  begin
    id 14
    name LeftForeArm
    direction 0.999332 0.0131969 0.0340885
    length 8.70632
    axis -9.90633 0.618216 0.0826942 xyz
    dof rx ry rz
  end
  begin
    id 15
    name LeftHand
    direction 0.994373 -0.0366703 0.0993905
    length 5.32135
    axis 0.00675269 0.680415 0.445699 xyz
    dof rx ry rz
  end
  begin
    id 16
    name RightShoulderDummy
    direction -0.967298 0.252589 -0.0230903
    length 3.68488
    axis -0.000934958 0.0245693 1.46543 xyz
  end
  begin
    id 17
    name RightShoulder
    direction -0.975062 0.221602 0.0120823
    length 3.13809
    axis 0.216257 0.0246515 1.45863 xyz
    dof rx ry rz
  end
  begin
    id 18
    name RightArm
    direction -0.99886 -0.00851186 -0.0469687
    length 10.3947
    axis -23.196 0.23503 -0.532632 xyz
    dof rx ry rz
  end
  begin
    id 19
    name RightForeArm
    direction -0.99909 0.00114866 0.0426317
    length 8.68355
    axis -9.91764 -0.134943 0.610517 xyz
    dof rx ry rz
  end
  begin
    id 20
    name RightHand
    direction -0.992888 -0.0489538 0.10852
    length 5.28593
    axis -0.00275396 -0.197403 0.246414 xyz
    dof rx ry rz
  end
  begin
    id 21
    name LeftUpLegDummy
    direction 1 -2.30186e-007 -8.31532e-007
    length 4.04083
    axis 0 0 0 xyz
  end
  begin
    id 22
    name LeftUpLeg
    direction -0.000920097 -1 2.79241e-006
    length 17.4221
    axis -3.48782 0.00143434 -0.0532288 xyz
    dof rx ry rz
  end
  begin
    id 23
    name LeftLeg
    direction -0.000920097 -1 2.7912e-006
    length 17.1239
    axis 3.68162 -0.00806512 -0.0529896 xyz
    dof rx ry rz
  end
  begin
    id 24
    name LeftFoot
    direction -2.57845e-005 -3.987e-007 1
    length 6.72091
    axis 3.02372e-005 -0.00147829 -0.214229 xyz
    dof rx ry rz
  end
  begin
    id 25
    name LeftToes
    direction 0.00813577 -0.00488255 0.999955
    length 3.85048
    axis 3.89895e-005 -0.0014783 -0.214229 xyz
    dof rx ry rz
  end
:hierarchy
  begin
    root RightUpLegDummy SpineDummy LeftUpLegDummy
    RightUpLegDummy RightUpLeg
    RightUpLeg RightLeg
    RightLeg RightFoot
    RightFoot RightToes
    SpineDummy Spine
    Spine Spine1
    Spine1 HEadDummy LeftShoulder1Dummy RightShoulderDummy
    HEadDummy HEad
    LeftShoulder1Dummy LeftShoulder1
    LeftShoulder1 LeftArm
    LeftArm LeftForeArm
    LeftForeArm LeftHand
    RightShoulderDummy RightShoulder
    RightShoulder RightArm
    RightArm RightForeArm
    RightForeArm RightHand
    LeftUpLegDummy LeftUpLeg
    LeftUpLeg LeftLeg
    LeftLeg LeftFoot
    LeftFoot LeftToes
  end

:SAMPLES-PER-SECOND 30
:FULLY-SPECIFIED
:DEGREES
1
root  31.374 34.6467 -36.1929 9.62194 -45.3007 0.481762
RightUpLeg  -6.59388 -17.0994 2.37877
RightLeg  4.07396 -1.84332 -0.0251549
RightFoot  1.68012 0.0121792 0.080274
RightToes  -19.6631 -0.0730792 -0.172924
Spine  -2.73061 -0.133892 0.320226
Spine1  -5.51989 -0.207442 1.24508
HEad  -57.3758 -5.7623 6.78384
LeftShoulder1  -1.94126e-019 -3.10601e-018 -2.51263e-017
LeftArm  -12.8852 26.3871 -82.4265
LeftForeArm  34.6171 -16.6049 -2.68628
LeftHand  -0.431549 -1.58864 7.41492
RightShoulder  -4.96962e-017 0 -2.36833e-017
RightArm  -33.2136 -25.5389 76.4275
RightForeArm  54.8686 14.0277 1.27064
RightHand  -0.304968 -2.06906 -10.4263
LeftUpLeg  -6.93899 5.54734 -0.55384
LeftLeg  4.8883 14.1276 0.293853
LeftFoot  3.06731 -0.0306947 0.904371
LeftToes  -16.6954 1.34695e-006 1.12385e-007
2
root  31.3697 34.6445 -36.1919 9.67614 -45.3103 0.481762
RightUpLeg  -6.68024 -17.0666 2.39454
RightLeg  4.13414 -1.86528 -0.0221409
RightFoot  1.6475 0.0121792 0.080274
RightToes  -19.652 -0.0730792 -0.172924
Spine  -2.74559 -0.154493 0.335814
Spine1  -5.54996 -0.25089 1.27633
HEad  -57.3847 -5.74359 6.76831
LeftShoulder1  -1.94126e-019 -3.10601e-018 -2.51263e-017
LeftArm  -12.7896 26.3573 -82.5
LeftForeArm  34.5554 -16.8756 -2.7249
LeftHand  -0.431703 -1.58679 7.40685
RightShoulder  -4.96962e-017 0 -2.36833e-017
RightArm  -33.4832 -25.5938 76.3904
RightForeArm  55.09 13.855 1.2899
RightHand  -0.315965 -1.94614 -10.4474
LeftUpLeg  -7.01578 5.52466 -0.555235
LeftLeg  4.93958 14.16 0.307057
LeftFoot  3.05031 -0.0306947 0.904371
LeftToes  -16.7604 1.34695e-006 1.12385e-007
3
root  31.3636 34.6422 -36.1882 9.69587 -45.3288 0.481762
RightUpLeg  -6.71188 -17.0513 2.39864
RightLeg  4.17248 -1.87395 -0.0209516
RightFoot  1.63714 0.0121792 0.080274
RightToes  -19.7302 -0.0730792 -0.172924
Spine  -2.75094 -0.175243 0.346052
Spine1  -5.56073 -0.294329 1.29606
HEad  -57.3916 -5.72725 6.8037
LeftShoulder1  -1.94126e-019 -3.10601e-018 -2.51263e-017
LeftArm  -12.6553 26.3488 -82.5425
LeftForeArm  34.4872 -17.1961 -2.77178
LeftHand  -0.432742 -1.63261 7.37604
RightShoulder  -4.96962e-017 0 -2.36833e-017
RightArm  -33.5845 -25.6634 76.3965
RightForeArm  55.0713 13.8034 1.29696
RightHand  -0.306034 -2.05603 -10.4301
LeftUpLeg  -7.0453 5.55635 -0.553286
LeftLeg  4.97722 14.1513 0.316074
LeftFoot  3.03281 -0.0303436 0.898913
LeftToes  -16.8384 1.34695e-006 1.12385e-007
4
root  31.3582 34.6401 -36.1844 9.71418 -45.3636 0.479028
RightUpLeg  -6.74383 -17.0419 2.4012
RightLeg  4.21007 -1.85587 -0.0234327
RightFoot  1.6199 0.0121792 0.080274
RightToes  -19.7692 -0.0730792 -0.172924
Spine  -2.76193 -0.188576 0.353582
Spine1  -5.58281 -0.322772 1.31046
HEad  -57.3627 -5.75085 6.8646
LeftShoulder1  -1.94126e-019 -3.10601e-018 -2.51263e-017
LeftArm  -12.5376 26.3373 -82.5685
LeftForeArm  34.5036 -17.4617 -2.80922
LeftHand  -0.434121 -1.64206 7.31392
RightShoulder  -4.96962e-017 0 -2.36833e-017
RightArm  -33.6441 -25.7248 76.3878
RightForeArm  55.107 13.7241 1.30668
RightHand  -0.310146 -2.02319 -10.4753
LeftUpLeg  -7.06368 5.59048 -0.552842
LeftLeg  5.01278 14.1535 0.324818
LeftFoot  2.98102 -0.0294781 0.885461
LeftToes  -16.7157 1.34695e-006 1.12385e-007
5
root  31.3553 34.6394 -36.1804 9.7339 -45.4167 0.472358
RightUpLeg  -6.77051 -16.9942 2.40538
RightLeg  4.24256 -1.85287 -0.0238449
RightFoot  1.60631 0.0121792 0.080274
RightToes  -19.7729 -0.0730792 -0.172924
Spine  -2.77098 -0.201967 0.3621
Spine1  -5.6012 -0.350196 1.32695
HEad  -57.3429 -5.77317 6.91286
LeftShoulder1  -1.94126e-019 -3.10601e-018 -2.51263e-017
LeftArm  -12.4612 26.3139 -82.6027
LeftForeArm  34.4252 -17.6322 -2.83296
LeftHand  -0.433409 -1.63086 7.34346
RightShoulder  -4.96962e-017 0 -2.36833e-017
RightArm  -33.6704 -25.7689 76.397
RightForeArm  55.1064 13.6997 1.30987
RightHand  -0.312327 -2.06434 -10.4859
LeftUpLeg  -7.07984 5.62346 -0.55459
LeftLeg  5.04521 14.1798 0.333354
LeftFoot  2.9494 -0.0290379 0.87862
LeftToes  -16.7137 1.34695e-006 1.12385e-007
6
root  31.3551 34.6392 -36.1772 9.74772 -45.4601 0.465874
RightUpLeg  -6.78349 -16.9825 2.40454
RightLeg  4.2472 -1.82094 -0.028227
RightFoot  1.6004 0.0121792 0.080274
RightToes  -19.7661 -0.0730792 -0.172924
Spine  -2.77798 -0.210168 0.369119
Spine1  -5.61531 -0.36637 1.34084
HEad  -57.3387 -5.79912 6.94846
LeftShoulder1  -1.94126e-019 -3.10601e-018 -2.51263e-017
LeftArm  -12.4282 26.2937 -82.6309
LeftForeArm  34.3976 -17.7285 -2.84788
LeftHand  -0.433189 -1.61772 7.34864
RightShoulder  -4.96962e-017 0 -2.36833e-017
RightArm  -33.7285 -25.7821 76.4219
RightForeArm  55.1288 13.6984 1.3081
RightHand  -0.314765 -2.14532 -10.4792
LeftUpLeg  -7.08248 5.63673 -0.558451
LeftLeg  5.05185 14.2082 0.335639
LeftFoot  2.956 -0.0288329 0.875433
LeftToes  -16.7799 1.34695e-006 1.12385e-007
7
root  31.356 34.6395 -36.1747 9.7558 -45.5114 0.458697
RightUpLeg  -6.79476 -16.911 2.40196
RightLeg  4.2547 -1.84893 -0.0243855
RightFoot  1.61898 0.0121792 0.080274
RightToes  -19.8184 -0.0730792 -0.172924
Spine  -2.78392 -0.220265 0.379754
Spine1  -5.62749 -0.385639 1.36178
HEad  -57.3272 -5.84829 6.95858
LeftShoulder1  -1.94126e-019 -3.10601e-018 -2.51263e-017
LeftArm  -12.3777 26.2582 -82.6588
LeftForeArm  34.4117 -17.7901 -2.85901
LeftHand  -0.436292 -1.62307 7.39488
RightShoulder  -4.96962e-017 0 -2.36833e-017
RightArm  -33.7891 -25.7746 76.4338
RightForeArm  55.1249 13.6928 1.30808
RightHand  -0.316276 -2.11569 -10.4885
LeftUpLeg  -7.08258 5.63659 -0.563714
LeftLeg  5.06001 14.2606 0.338861
LeftFoot  2.93069 -0.0287064 0.873467
LeftToes  -16.6499 1.34695e-006 1.12385e-007
8
root  31.3576 34.6401 -36.169 9.77111 -45.5877 0.441735
RightUpLeg  -6.7947 -16.8532 2.39832
RightLeg  4.24106 -1.82861 -0.0271735
RightFoot  1.63503 0.0121792 0.080274
RightToes  -19.7194 -0.0730792 -0.172924
Spine  -2.79809 -0.228235 0.394827
Spine1  -5.65601 -0.39946 1.39164
HEad  -57.3023 -5.89868 6.92564
LeftShoulder1  -1.94126e-019 -3.10601e-018 -2.51263e-017
LeftArm  -12.3677 26.2711 -82.6615
LeftForeArm  34.3637 -17.9253 -2.88052
LeftHand  -0.424718 -1.60286 7.2223
RightShoulder  -4.96962e-017 0 -2.36833e-017
RightArm  -33.8377 -25.7406 76.458
RightForeArm  55.1728 13.6842 1.31107
RightHand  -0.317037 -2.08522 -10.5118
LeftUpLeg  -7.06871 5.72336 -0.5668
LeftLeg  5.05027 14.2436 0.341998
LeftFoot  2.92005 -0.028658 0.872715
LeftToes  -16.565 1.34695e-006 1.12385e-007
